<svg width="56" height="47" viewBox="0 0 56 47" fill="none" xmlns="http://www.w3.org/2000/svg">
<g clip-path="url(#clip0_1_177)">
<path d="M0 0H32.5C45.4787 0 56 10.5213 56 23.5C56 36.4787 45.4787 47 32.5 47H0V0Z" fill="#3CDA5F"/>
<mask id="mask0_1_177" style="mask-type:alpha" maskUnits="userSpaceOnUse" x="0" y="0" width="56" height="47">
<path d="M25.315 14.5693C23.3279 14.5726 21.4232 15.3635 20.0181 16.7685C18.6131 18.1736 17.8222 20.0783 17.8189 22.0654C17.8206 24.0541 18.6105 25.9611 20.0155 27.3685C21.4206 28.7759 23.3262 29.569 25.315 29.574C27.0788 29.574 28.7039 28.9536 29.989 27.9268L33.1102 31.048C33.2684 31.1951 33.4773 31.2751 33.6932 31.2713C33.9091 31.2675 34.1151 31.1802 34.268 31.0278C34.4209 30.8753 34.5087 30.6695 34.5131 30.4536C34.5174 30.2378 34.438 30.0286 34.2913 29.8701L31.1701 26.7457C32.2361 25.4199 32.8173 23.7697 32.8173 22.0685C32.8173 17.9362 29.4473 14.5693 25.315 14.5693ZM25.315 16.2386C28.5465 16.2386 31.148 18.837 31.148 22.0654C31.148 25.2937 28.5465 27.9079 25.315 27.9079C22.0835 27.9079 19.4851 25.3032 19.4851 22.0717C19.4851 18.8402 22.0835 16.2386 25.315 16.2386Z" fill="black"/>
</mask>
<g mask="url(#mask0_1_177)">
<rect width="56" height="47" fill="white"/>
</g>
</g>
<defs>
<clipPath id="clip0_1_177">
<path d="M0 0H32.5C45.4787 0 56 10.5213 56 23.5C56 36.4787 45.4787 47 32.5 47H0V0Z" fill="white"/>
</clipPath>
</defs>
</svg>
