<svg width="13" height="12" viewBox="0 0 13 12" fill="none" xmlns="http://www.w3.org/2000/svg">
<g clip-path="url(#clip0_1_171)">
<path d="M11.7885 1.71909H0.991555C0.832446 1.71909 0.679855 1.65592 0.567348 1.54349C0.454842 1.43106 0.391636 1.27856 0.391636 1.11955C0.391636 0.960548 0.454842 0.808054 0.567348 0.695619C0.679855 0.583185 0.832446 0.52002 0.991555 0.52002H11.7885C11.9476 0.52002 12.1002 0.583185 12.2127 0.695619C12.3252 0.808054 12.3884 0.960548 12.3884 1.11955C12.3884 1.27856 12.3252 1.43106 12.2127 1.54349C12.1002 1.65592 11.9476 1.71909 11.7885 1.71909ZM7.79989 4.32633C7.79946 4.16746 7.73612 4.01522 7.62371 3.90287C7.51129 3.79053 7.35895 3.72723 7.19998 3.7268H0.988285C0.829177 3.7268 0.676585 3.78996 0.564079 3.9024C0.451572 4.01483 0.388367 4.16733 0.388367 4.32633C0.388367 4.48534 0.451572 4.63783 0.564079 4.75027C0.676585 4.8627 0.829177 4.92587 0.988285 4.92587H7.19998C7.35895 4.92544 7.51129 4.86213 7.62371 4.74979C7.73612 4.63745 7.79946 4.48521 7.79989 4.32633ZM9.62744 7.51841C9.62701 7.35953 9.56366 7.20729 9.45125 7.09495C9.33884 6.98261 9.1865 6.9193 9.02752 6.91887H0.991555C0.832446 6.91887 0.679855 6.98204 0.567348 7.09447C0.454842 7.20691 0.391636 7.3594 0.391636 7.51841C0.391636 7.67741 0.454842 7.82991 0.567348 7.94234C0.679855 8.05478 0.832446 8.11794 0.991555 8.11794H9.02916C9.18785 8.11708 9.33977 8.05359 9.45183 7.94129C9.56389 7.829 9.62701 7.677 9.62744 7.51841ZM11.8465 10.7105C11.8461 10.5516 11.7827 10.3994 11.6703 10.287C11.5579 10.1747 11.4055 10.1114 11.2466 10.1109H1.03651C0.877399 10.1109 0.724808 10.1741 0.612301 10.2865C0.499795 10.399 0.436589 10.5515 0.436589 10.7105C0.436589 10.8695 0.499795 11.022 0.612301 11.1344C0.724808 11.2469 0.877399 11.31 1.03651 11.31H11.2482C11.4072 11.3096 11.5595 11.2463 11.6719 11.1339C11.7843 11.0216 11.8477 10.8694 11.8481 10.7105H11.8465Z" fill="#184363"/>
</g>
<defs>
<clipPath id="clip0_1_171">
<rect width="12" height="10.79" fill="white" transform="translate(0.390015 0.52002)"/>
</clipPath>
</defs>
</svg>
